<svg width="62" height="26" viewBox="0 0 62 26" fill="none" xmlns="http://www.w3.org/2000/svg">
<ellipse cx="59.7778" cy="2.84521" rx="1.96191" ry="2.22222" transform="rotate(90 59.7778 2.84521)" fill="#FF9F59"/>
<ellipse cx="59.7778" cy="13.3086" rx="1.96191" ry="2.22222" transform="rotate(90 59.7778 13.3086)" fill="#FF9F59"/>
<ellipse cx="59.7778" cy="23.772" rx="1.96191" ry="2.22222" transform="rotate(90 59.7778 23.772)" fill="#FF9F59"/>
<ellipse cx="47.9259" cy="2.84521" rx="1.96191" ry="2.22222" transform="rotate(90 47.9259 2.84521)" fill="#FF9F59"/>
<ellipse cx="47.9259" cy="13.3086" rx="1.96191" ry="2.22222" transform="rotate(90 47.9259 13.3086)" fill="#FF9F59"/>
<ellipse cx="47.9259" cy="23.772" rx="1.96191" ry="2.22222" transform="rotate(90 47.9259 23.772)" fill="#FF9F59"/>
<ellipse cx="36.0741" cy="2.84521" rx="1.96191" ry="2.22222" transform="rotate(90 36.0741 2.84521)" fill="#FF9F59"/>
<ellipse cx="36.0741" cy="13.3086" rx="1.96191" ry="2.22222" transform="rotate(90 36.0741 13.3086)" fill="#FF9F59"/>
<ellipse cx="36.0741" cy="23.772" rx="1.96191" ry="2.22222" transform="rotate(90 36.0741 23.772)" fill="#FF9F59"/>
<ellipse cx="24.2222" cy="2.84521" rx="1.96191" ry="2.22222" transform="rotate(90 24.2222 2.84521)" fill="#FF9F59"/>
<ellipse cx="13.2222" cy="2.84521" rx="1.96191" ry="2.22222" transform="rotate(90 13.2222 2.84521)" fill="#FF9F59"/>
<ellipse cx="2.22224" cy="2.84521" rx="1.96191" ry="2.22222" transform="rotate(90 2.22224 2.84521)" fill="#FF9F59"/>
<ellipse cx="24.2222" cy="13.3086" rx="1.96191" ry="2.22222" transform="rotate(90 24.2222 13.3086)" fill="#FF9F59"/>
<ellipse cx="13.2222" cy="13.3086" rx="1.96191" ry="2.22222" transform="rotate(90 13.2222 13.3086)" fill="#FF9F59"/>
<ellipse cx="2.22224" cy="13.3086" rx="1.96191" ry="2.22222" transform="rotate(90 2.22224 13.3086)" fill="#FF9F59"/>
<ellipse cx="24.2222" cy="23.772" rx="1.96191" ry="2.22222" transform="rotate(90 24.2222 23.772)" fill="#FF9F59"/>
<ellipse cx="13.2222" cy="23.772" rx="1.96191" ry="2.22222" transform="rotate(90 13.2222 23.772)" fill="#FF9F59"/>
<ellipse cx="2.22224" cy="23.772" rx="1.96191" ry="2.22222" transform="rotate(90 2.22224 23.772)" fill="#FF9F59"/>
</svg>
